<?xml version="1.0" encoding="UTF-8" standalone="no"?>
<!-- Created with Inkscape (http://www.inkscape.org/) -->

<svg
   width="131.93785mm"
   height="58.821178mm"
   viewBox="0 0 131.93785 58.821178"
   version="1.1"
   id="svg1"
   inkscape:version="1.3.2 (091e20e, 2023-11-25, custom)"
   sodipodi:docname="studiomotion.svg"
   xmlns:inkscape="http://www.inkscape.org/namespaces/inkscape"
   xmlns:sodipodi="http://sodipodi.sourceforge.net/DTD/sodipodi-0.dtd"
   xmlns="http://www.w3.org/2000/svg"
   xmlns:svg="http://www.w3.org/2000/svg">
  <sodipodi:namedview
     id="namedview1"
     pagecolor="#ffffff"
     bordercolor="#111111"
     borderopacity="1"
     inkscape:showpageshadow="0"
     inkscape:pageopacity="0"
     inkscape:pagecheckerboard="1"
     inkscape:deskcolor="#d1d1d1"
     inkscape:document-units="mm"
     inkscape:zoom="1.3843855"
     inkscape:cx="247.76335"
     inkscape:cy="12.640987"
     inkscape:window-width="1920"
     inkscape:window-height="991"
     inkscape:window-x="-9"
     inkscape:window-y="-9"
     inkscape:window-maximized="1"
     inkscape:current-layer="layer1"
     showgrid="false" />
  <defs
     id="defs1">
    <inkscape:perspective
       sodipodi:type="inkscape:persp3d"
       inkscape:vp_x="0 : -89.678824 : 1"
       inkscape:vp_y="0 : 999.99995 : 0"
       inkscape:vp_z="210 : -89.678824 : 1"
       inkscape:persp3d-origin="105.00001 : -139.17882 : 1"
       id="perspective10" />
    <rect
       x="121.35348"
       y="465.18835"
       width="547.53534"
       height="154.58122"
       id="rect1" />
  </defs>
  <g
     inkscape:label="Sloj 1"
     inkscape:groupmode="layer"
     id="layer1"
     transform="translate(-28.023752,-96.11045)">
    <text
       xml:space="preserve"
       transform="matrix(0.23920788,0,0,0.23765099,-0.87315566,13.117178)"
       id="text1"
       style="font-style:normal;font-variant:normal;font-weight:normal;font-stretch:normal;font-size:84.2875px;font-family:'Vladimir Script';-inkscape-font-specification:'Vladimir Script';white-space:pre;shape-inside:url(#rect1);display:inline;fill:#841913;fill-opacity:1;stroke-width:1.0005;stroke-dasharray:none"><tspan
         x="121.35352"
         y="532.09784"
         id="tspan3">Studio Motion</tspan></text>
    <text
       xml:space="preserve"
       style="font-size:19.7556px;fill:#000000;stroke-width:0.264583"
       x="238.89961"
       y="145.57468"
       id="text2"><tspan
         sodipodi:role="line"
         id="tspan2"
         style="stroke-width:0.264583"
         x="238.89961"
         y="145.57468" /></text>
    <g
       id="g9"
       transform="matrix(1.2035281,0,0,1.2065473,-22.620942,-22.264405)">
      <path
         style="fill:#841913;fill-opacity:1;stroke:none;stroke-width:1.068;stroke-dasharray:none"
         d="m 59.38333,98.963547 c 2.027129,-0.945994 1.700867,-0.850434 1.700867,-0.850434 l 8.108522,8.649087 -5.000255,3.85155 z"
         id="path7"
         sodipodi:nodetypes="ccccc" />
      <path
         style="fill:#841913;fill-opacity:1;stroke:none;stroke-width:1.068;stroke-dasharray:none"
         d="m 66.422306,108.24876 c 4.392118,5.1354 4.392118,5.1354 4.392118,5.1354 l 0.270282,-0.40542 -4.189402,-4.93269 z"
         id="path8" />
      <path
         style="fill:#841913;fill-opacity:1;stroke:none;stroke-width:1.18275;stroke-dasharray:none"
         d="m 70.733719,113.10414 c 0,0 -0.292941,0.95718 -0.274414,1.56885 0.01633,0.53902 0.165604,0.92504 0.486115,1.22588 0.290096,0.27229 0.698366,0.34342 1.135157,0.36892 1.476553,0.0862 0.48778,-0.29272 2.327288,0.34877 -0.223004,-0.6778 -0.441874,-1.35138 -0.810552,-1.96518 -0.47741,-0.50262 -1.093053,-0.51784 -1.719162,-0.63309 -0.291817,-0.32928 -0.445614,-0.7152 -0.76039,-1.0591 z"
         id="path9"
         sodipodi:nodetypes="csascsscc" />
    </g>
    <text
       xml:space="preserve"
       style="font-style:normal;font-variant:normal;font-weight:normal;font-stretch:normal;font-size:22.5778px;font-family:'Vladimir Script';-inkscape-font-specification:'Vladimir Script';fill:#0f4514;fill-opacity:1;stroke:none;stroke-width:1.068;stroke-dasharray:none"
       x="17.568462"
       y="149.73737"
       id="text15"><tspan
         sodipodi:role="line"
         id="tspan15"
         style="stroke-width:1.068"
         x="17.568462"
         y="149.73737" /></text>
    <path
       style="fill:#841913;fill-opacity:1;stroke:none;stroke-width:1.43351;stroke-dasharray:none"
       d="m 139.42181,118.08068 c 0,0 2.5125,0.22439 3.43867,-0.35165 0.65529,-0.40757 0.78735,-1.21284 0.98247,-1.87546 0.28001,-0.95086 0.24562,-2.93041 0.24562,-2.93041 0,0 0.0339,2.02354 0.35089,2.98902 0.21169,0.64479 0.37986,1.41264 1.01756,1.81685 0.79339,0.5029 2.94742,0.41026 2.94742,0.41026 0,0 -2.25433,0.1587 -3.0176,0.76191 -0.59662,0.47151 -0.6609,1.26499 -0.84212,1.93408 -0.21516,0.79443 -0.28076,2.43223 -0.28076,2.43223 0,0 -0.0972,-1.64357 -0.35089,-2.43223 -0.23106,-0.71845 -0.37312,-1.57032 -1.05265,-2.0513 -0.90026,-0.63719 -3.43861,-0.7033 -3.43861,-0.7033 z"
       id="path15"
       sodipodi:nodetypes="caacaacaacaac" />
    <path
       style="fill:#841913;fill-opacity:1;stroke:none;stroke-width:0.989831;stroke-dasharray:none"
       d="m 136.51236,124.74664 c 0,0 1.65718,0.16221 2.26806,-0.25419 0.43221,-0.29462 0.51932,-0.87672 0.64801,-1.3557 0.18469,-0.68735 0.16201,-2.11829 0.16201,-2.11829 0,0 0.0224,1.46274 0.23143,2.16065 0.13963,0.4661 0.25055,1.02115 0.67116,1.31334 0.5233,0.36353 1.94404,0.29656 1.94404,0.29656 0,0 -1.48689,0.11472 -1.99033,0.55076 -0.39351,0.34084 -0.43591,0.91441 -0.55544,1.39807 -0.14191,0.57427 -0.18518,1.75817 -0.18518,1.75817 0,0 -0.0641,-1.18807 -0.23144,-1.75817 -0.1524,-0.51934 -0.2461,-1.13512 -0.6943,-1.48281 -0.59379,-0.4606 -2.26802,-0.50839 -2.26802,-0.50839 z"
       id="path15-4"
       sodipodi:nodetypes="caacaacaacaac" />
    <path
       style="fill:#841913;fill-opacity:1;stroke:none;stroke-width:0.989775;stroke-dasharray:none"
       d="m 146.06475,122.85571 c 0,0 1.6809,0.1599 2.30052,-0.25058 0.4384,-0.29043 0.52675,-0.86425 0.65728,-1.33642 0.18734,-0.67757 0.16433,-2.08817 0.16433,-2.08817 0,0 0.0227,1.44194 0.23475,2.12993 0.14162,0.45947 0.25413,1.00663 0.68076,1.29466 0.53079,0.35836 1.97187,0.29234 1.97187,0.29234 0,0 -1.50818,0.11309 -2.01882,0.54293 -0.39915,0.33599 -0.44215,0.90141 -0.56339,1.3782 -0.14395,0.56609 -0.18783,1.73317 -0.18783,1.73317 0,0 -0.065,-1.17119 -0.23475,-1.73317 -0.15459,-0.51196 -0.24963,-1.11899 -0.70424,-1.46173 -0.60229,-0.45405 -2.30048,-0.50116 -2.30048,-0.50116 z"
       id="path15-8"
       sodipodi:nodetypes="caacaacaacaac" />
    <path
       style="fill:#841913;fill-opacity:1;stroke:none;stroke-width:1.068;stroke-dasharray:none"
       id="path16"
       d="m 85.657817,143.7733 c 1.598539,-0.37964 3.29651,-0.31477 4.915027,-0.0963 0.511403,0.069 1.017347,0.17377 1.526022,0.26066 0.523227,0.12429 1.052163,0.22663 1.569685,0.37287 1.249858,0.35318 2.683965,0.88196 3.884272,1.35226 2.075743,0.81329 4.108487,1.73201 6.145237,2.63672 2.61186,1.13994 5.16441,2.41941 7.80106,3.50321 1.622,0.66673 2.29013,0.87193 3.94535,1.44518 2.82723,0.80712 5.7238,1.31724 8.65448,1.53865 1.59406,0.12043 2.30618,0.1138 3.8779,0.14501 1.5356,0.002 3.07736,-0.0391 4.59932,-0.26255 0.50859,-0.0747 1.01256,-0.17809 1.51767,-0.27347 1.38666,-0.26183 1.83556,-0.36541 3.2248,-0.66027 1.57087,-0.35678 3.14442,-0.70318 4.70571,-1.10061 0.76796,-0.19548 2.00908,-0.51849 2.75961,-0.79344 0.47572,-0.17428 0.9344,-0.39195 1.4016,-0.58793 1.79617,-0.77173 3.59897,-1.5824 5.23798,-2.65979 0.2859,-0.18793 0.55907,-0.39455 0.8386,-0.59182 0.28901,-0.23581 0.58715,-0.46085 0.86702,-0.70743 0.3419,-0.30122 0.66584,-0.62226 0.99722,-0.93502 1.19728,-1.13003 2.365,-2.27782 3.46917,-3.49919 0.412,-0.58013 0.66714,-0.87853 0.96114,-1.52493 0.52931,-1.16378 0.71894,-2.46966 0.95204,-3.71509 0.29843,-1.70532 0.39281,-3.43409 0.44586,-5.16137 0.0541,-1.79245 -0.21415,-3.56601 -0.47854,-5.33274 -0.23221,-1.35805 -0.41542,-2.73093 -0.72852,-4.07411 -0.10681,-0.45824 -0.41678,-1.55193 -0.5445,-2.01019 -0.35986,-1.00504 -0.53069,-2.08117 -0.95608,-3.06379 -0.23718,-0.54785 -0.37713,-0.73398 -0.68776,-1.23597 -0.70873,-1.06585 -1.62967,-1.9489 -2.61385,-2.75543 -1.68055,-1.2362 -3.57449,-2.1962 -5.36595,-3.236 -0.87478,-0.50774 3.5142,2.00446 2.62852,1.51597 -1.28892,-0.71089 -2.55895,-1.45552 -3.83843,-2.18328 -1.1046,-0.51852 -2.21639,-1.03403 -3.38308,-1.39719 -1.17821,-0.37573 -2.40418,-0.54952 -3.63013,-0.67678 -1.33952,-0.0497 -2.68023,-0.11406 -4.01996,-0.0303 -0.76786,0.048 -1.34583,0.12555 -2.10857,0.21439 -2.25005,0.25267 -4.39858,0.97432 -6.54215,1.66574 -2.16946,0.75922 -4.25724,1.7264 -6.3986,2.55795 -1.32017,0.50777 -2.64308,1.01208 -3.9823,1.46771 -1.16639,0.41174 -2.35984,0.7463 -3.555,1.06383 -1.33202,0.35651 -2.64128,0.79075 -3.95199,1.21728 -1.20451,0.3473 -2.41628,0.66966 -3.6341,0.96734 -1.66527,0.46031 -3.35169,0.83471 -5.04247,1.18716 -1.760322,0.34236 -3.532057,0.63059 -5.304569,0.90324 -1.612998,0.25532 -3.225708,0.51154 -4.846675,0.71126 -1.341874,0.19712 -2.692662,0.30259 -4.042066,0.42761 -0.912643,0.13323 -1.829419,0.22236 -2.750603,0.26356 -1.070099,0.0329 -2.140077,0.0502 -3.209922,0.0913 -1.067623,0.0443 -2.135997,0.0659 -3.204451,0.0742 -0.993534,0.0111 -1.98709,0.006 -2.980648,0.003 -0.805047,0.009 -1.607145,6.6e-4 -2.409642,-0.0614 -0.568039,-0.12114 -1.142825,-0.22577 -1.685242,-0.43835 -0.122672,-0.0444 -0.247349,-0.0816 -0.359061,-0.15167 -0.0468,-0.0294 -0.177371,-0.13098 -0.129328,-0.10368 5.90913,3.35674 4.15314,2.44555 3.047671,1.76075 -0.02426,-0.0214 -0.04855,-0.0429 -0.07283,-0.0643 0,0 -3.618791,-1.61019 -3.618791,-1.61019 v 0 c 0.01447,0.0453 0.02897,0.0907 0.04345,0.13605 0.04041,0.0741 0.08652,0.18275 0.165023,0.22931 1.512501,0.89715 2.528591,1.74921 4.02304,2.21018 0.561814,0.15234 1.133073,0.27879 1.713222,0.3352 0.796639,0.0425 1.594363,0.0116 2.391799,0.0171 0.990383,-0.003 1.980769,-0.008 2.971123,-0.0153 1.063664,-0.0175 2.127075,-0.043 3.189599,-0.0977 1.086914,-0.0436 2.173634,-0.0237 3.260453,-0.0633 0.911365,-0.0629 1.81701,-0.17117 2.720641,-0.30547 1.332931,-0.14511 2.665188,-0.29264 3.99392,-0.47327 1.610103,-0.20656 3.207131,-0.50079 4.810334,-0.75389 1.775603,-0.30964 3.569133,-0.51728 5.330053,-0.90687 1.7045,-0.37128 3.40031,-0.78059 5.10392,-1.15586 1.22724,-0.28732 2.44431,-0.62057 3.64754,-0.99608 1.30531,-0.43369 2.61319,-0.86329 3.94979,-1.19242 1.20061,-0.32004 2.39878,-0.65474 3.56388,-1.08967 1.32646,-0.45669 2.62891,-0.97618 3.91439,-1.5381 2.09168,-0.88183 4.12836,-1.9022 6.29589,-2.59386 2.14678,-0.67489 4.31554,-1.31082 6.55909,-1.56826 0.80449,-0.0896 1.27415,-0.1543 2.0848,-0.19446 1.36496,-0.0676 2.73519,10e-4 4.09238,0.15133 1.22818,0.1608 2.45484,0.3563 3.62766,0.77072 1.13015,0.39246 2.22948,0.87081 3.29626,1.41225 -4.2879,-2.5082 -2.89202,-1.68591 1.2091,0.68202 0.88458,0.51074 -1.76623,-1.02657 -2.65215,-1.53497 -0.18166,-0.10425 0.3598,0.21452 0.53929,0.32246 0.17563,0.10563 0.35395,0.20699 0.52607,0.31825 0.16986,0.10981 0.33294,0.22977 0.49941,0.34466 1.00247,0.76954 1.93524,1.62772 2.68404,2.65283 0.33397,0.4856 0.46054,0.62993 0.71807,1.16467 0.47299,0.98215 0.69635,2.06409 1.07665,3.08076 0.20572,0.71586 0.36974,1.25625 0.54305,1.98112 0.32071,1.3414 0.54202,2.70632 0.76453,4.06639 0.24238,1.73483 0.41735,3.48071 0.4202,5.23436 -0.0291,1.71713 -0.0893,3.43873 -0.36785,5.13678 -0.32091,1.81332 -0.65521,3.57916 -1.80557,5.07801 -1.55132,1.91034 -3.26449,3.63492 -5.27736,5.06548 -1.8654,1.25959 -3.81242,2.40408 -5.89211,3.27714 -0.47288,0.18105 -0.94061,0.37614 -1.41863,0.54315 -2.39861,0.83804 -4.90466,1.33196 -7.37108,1.91746 -3.05237,0.61941 -6.12771,1.18763 -9.25625,1.16603 -1.60973,-0.0102 -2.13979,0.0124 -3.7829,-0.10984 -2.92076,-0.21731 -5.81379,-0.73733 -8.61294,-1.60569 -0.65648,-0.23067 -1.31773,-0.44816 -1.96943,-0.692 -3.31755,-1.24126 -6.48845,-2.83372 -9.72996,-4.25324 -2.04162,-0.90103 -4.080721,-1.80932 -6.159184,-2.62348 -1.12435,-0.44042 -2.885954,-1.10062 -4.063924,-1.43645 -0.525674,-0.14987 -1.065448,-0.24495 -1.59817,-0.36742 -0.522809,-0.0873 -1.043059,-0.19165 -1.568424,-0.26195 -1.022773,-0.13686 -1.818431,-0.17957 -2.842035,-0.19223 -0.712483,-0.009 -1.335857,0.002 -2.035823,0.0834 -0.159779,0.0185 -0.31659,0.0571 -0.474885,0.0856 z" />
  </g>
</svg>
